# xmcd CD database file
#
# Track frame offsets:
#	225
#	32803
#	59853
#	97714
#	137566
#	177634
#	212285
#	264460
#	293005
#	318055
#
# Disc length: 4624 seconds
#
# Revision: 0
# Processed by: cddbd v1.5.2PL0 Copyright (c) Steve Scherf et al.
# Submitted via: CDex 1.70beta2
#
DISCID=8b120d0a
DTITLE=Various Artist - Jazz it up
DYEAR=2006
DGENRE=Jazz
TTITLE0=Autumn Leaves - Stan Getz
TTITLE1=My One And Only Love - Ernie Watis and Chick Corea
TTITLE2=Take Five - Dave Brubeck
TTITLE3=Con Alma - Dizzy Gillespie
TTITLE4=Round Midnight - Larry Coryell
TTITLE5=Someone To Watch Over Me - Donald Byrd
TTITLE6=My Funny Valentine - Chet Baker
TTITLE7=Goodbye Pork Pie Hat - Harry Beckett
TTITLE8=Blue Bossa - Joe Henderson
TTITLE9=Waltz For Debbie - Bill Evans
EXTD=YEAR: 2006
EXTT0=
EXTT1=
EXTT2=
EXTT3=
EXTT4=
EXTT5=
EXTT6=
EXTT7=
EXTT8=
EXTT9=
PLAYORDER=
